# xmcd
#
# Track frame offsets: 
#        150
#        18482
#        39080
#        62645
#        75275
#        106410
#        126575
#        137062
#        155350
#        173415
#
# Disc length: 2582 seconds
#
# Revision: 32
# Processed by: cddbd v1.5.2PL0 Copyright (c) Steve Scherf et al.
# Submitted via: ExactAudioCopy v1.0b3
#
DISCID=720a140a
DTITLE=Bruce Springsteen - Darkness On The Edge Of Town
DYEAR=1978
DGENRE=Rock
TTITLE0=Badlands
TTITLE1=Adam Raised A Cain
TTITLE2=Something In The Night
TTITLE3=Candy's Room
TTITLE4=Racing In The Street
TTITLE5=The Promised Land
TTITLE6=Factory
TTITLE7=Streets Of Fire
TTITLE8=Prove It All Night
TTITLE9=Darkness On The Edge Of Town
EXTD=
EXTT0=
EXTT1=
EXTT2=
EXTT3=
EXTT4=
EXTT5=
EXTT6=
EXTT7=
EXTT8=
EXTT9=
PLAYORDER=
